<svg xmlns="http://www.w3.org/2000/svg" xmlns:xlink="http://www.w3.org/1999/xlink" viewBox="45 39 22 22">
  <defs>
    <filter id="background" x="0" y="0" width="112" height="112" filterUnits="userSpaceOnUse">
      <feOffset dy="6" input="SourceAlpha"/>
      <feGaussianBlur stdDeviation="15" result="blur"/>
      <feFlood flood-color="#222b45" flood-opacity="0.102"/>
      <feComposite operator="in" in2="blur"/>
      <feComposite in="SourceGraphic"/>
    </filter>
  </defs>
  <g id="Icon_Notification" data-name="Icon/Notification" transform="translate(45 39)">
    <g transform="matrix(1, 0, 0, 1, -45, -39)" filter="url(#background)">
      <rect id="background-2" data-name="background" width="22" height="22" rx="11" transform="translate(45 39)" fill="#edf1f7" opacity="0"/>
    </g>
    <g id="Iconly_Two-tone_Notification" data-name="Iconly/Two-tone/Notification" transform="translate(4 2)">
      <g id="Notification">
        <path id="Path_425" d="M0,10.4v-.193A3.177,3.177,0,0,1,.531,8.6,4.3,4.3,0,0,0,1.584,6.561c0-.588,0-1.185.051-1.773C1.9,1.957,4.7,0,7.466,0h.068C10.3,0,13.1,1.957,13.373,4.789c.051.588,0,1.185.043,1.773a4.372,4.372,0,0,0,1.053,2.05,3.094,3.094,0,0,1,.531,1.6v.185a3.147,3.147,0,0,1-.745,2.109,3.975,3.975,0,0,1-2.517,1.21,39.775,39.775,0,0,1-8.484,0A4.019,4.019,0,0,1,.737,12.5,3.18,3.18,0,0,1,0,10.4Z" fill="none" stroke="#001489" stroke-linecap="round" stroke-linejoin="round" stroke-width="1.5"/>
        <path id="Path_421" d="M0,0A2.7,2.7,0,0,0,1.8.994,2.725,2.725,0,0,0,3.784.445,2.546,2.546,0,0,0,4.246,0" transform="translate(5.343 16.634)" fill="none" stroke="#001489" stroke-linecap="round" stroke-linejoin="round" stroke-width="1.5" opacity="0.4"/>
      </g>
    </g>
  </g>
</svg>