<svg xmlns="http://www.w3.org/2000/svg" width="18" height="18" viewBox="0 0 18 18">
  <g id="Group_7" data-name="Group 7" transform="translate(-570)">
    <circle id="Ellipse_3" data-name="Ellipse 3" cx="9" cy="9" r="9" transform="translate(570)" fill="rgba(253,91,91,0.1)"/>
    <path id="arrow" d="M1.784,6a.6.6,0,0,1,0-1.2H3.918L.173,1.024a.606.606,0,0,1,0-.849.592.592,0,0,1,.842,0L4.759,3.951V1.8a.595.595,0,1,1,1.19,0V5.378a.6.6,0,0,1-.174.446l-.029.027,0,0,0,0-.009.007h0A.589.589,0,0,1,5.354,6Z" transform="translate(576 6)" fill="#fd5b5b"/>
  </g>
</svg>
