<svg id="Icon_Calendar" data-name="Icon/Calendar" xmlns="http://www.w3.org/2000/svg" width="24" height="24" viewBox="0 0 24 24">
  <rect id="Rectangle_4" data-name="Rectangle 4" width="24" height="24" fill="#fff" opacity="0"/>
  <g id="Iconly_Two-tone_Calendar" data-name="Iconly/Two-tone/Calendar" transform="translate(3 2)">
    <g id="Calendar">
      <path id="Line_200" d="M0,.473H17.824" transform="translate(0.093 6.931)" fill="none" stroke="#001489" stroke-linecap="round" stroke-linejoin="round" stroke-width="1.5" opacity="0.4"/>
      <path id="Combined_Shape" data-name="Combined Shape" d="M8.884,3.887h.009Zm-4.438,0h.01ZM0,3.887H.009ZM8.884,0h.009ZM4.446,0h.01ZM0,0H.009Z" transform="translate(4.558 11.309)" fill="none" stroke="#001489" stroke-linecap="round" stroke-linejoin="round" stroke-width="1.5" opacity="0.3"/>
      <path id="Line_207" d="M.463,0V3.291" transform="translate(12.581)" fill="none" stroke="#001489" stroke-linecap="round" stroke-linejoin="round" stroke-width="1.5"/>
      <path id="Line_208" d="M.463,0V3.291" transform="translate(4.502)" fill="none" stroke="#001489" stroke-linecap="round" stroke-linejoin="round" stroke-width="1.5"/>
      <path id="Path" d="M13.238,0H4.771C1.834,0,0,1.636,0,4.643v9.05c0,3.054,1.834,4.728,4.771,4.728h8.458c2.946,0,4.771-1.645,4.771-4.652V4.643C18.009,1.636,16.184,0,13.238,0Z" transform="translate(0 1.579)" fill="none" stroke="#001489" stroke-linecap="round" stroke-linejoin="round" stroke-width="1.5"/>
    </g>
  </g>
</svg>
