<svg xmlns="http://www.w3.org/2000/svg" width="17" height="17" viewBox="0 0 17 17">
  <g id="Group_1906" data-name="Group 1906" transform="translate(-19.615 -89.615)">
    <rect id="Rectangle_882" data-name="Rectangle 882" width="17" height="17" rx="8.5" transform="translate(19.615 89.615)" fill="#edf1f7"/>
    <g id="Iconly_Light_Profile" data-name="Iconly/Light/Profile" transform="translate(24.915 94.615)">
      <g id="Profile">
        <ellipse id="Ellipse_736" cx="2.05" cy="2.187" rx="2.05" ry="2.187" transform="translate(1.2)" fill="#acb1c0"/>
        <path id="Path_33945" d="M0,1.381A1.071,1.071,0,0,1,.094.937,1.716,1.716,0,0,1,1.3.195,6.779,6.779,0,0,1,2.309.044a10.078,10.078,0,0,1,1.881,0A6.857,6.857,0,0,1,5.2.195a1.651,1.651,0,0,1,1.21.742,1.1,1.1,0,0,1,0,.893,1.634,1.634,0,0,1-1.21.737,6.348,6.348,0,0,1-1.005.155,10.386,10.386,0,0,1-1.532.025,1.637,1.637,0,0,1-.35-.025,6.23,6.23,0,0,1-1-.155A1.642,1.642,0,0,1,.094,1.829,1.1,1.1,0,0,1,0,1.381Z" transform="translate(0 5.236)" fill="#acb1c0"/>
      </g>
    </g>
  </g>
</svg>
