<svg xmlns="http://www.w3.org/2000/svg" width="15" height="15" viewBox="0 0 15 15">
  <g id="Group_2102" data-name="Group 2102" transform="translate(-84.543 -51.62)">
    <rect id="Rectangle_883" data-name="Rectangle 883" width="15" height="15" transform="translate(84.543 51.62)" fill="#fff" opacity="0"/>
    <g id="Iconly_Light_Location" data-name="Iconly/Light/Location" transform="translate(87.543 53.62)">
      <g id="Location">
        <path id="Path_33958" d="M0,4.607a4.623,4.623,0,1,1,9.246.031v.052A6.827,6.827,0,0,1,7.152,9.083a12.151,12.151,0,0,1-2.162,1.78.56.56,0,0,1-.733,0A11.931,11.931,0,0,1,1.215,8.015,5.916,5.916,0,0,1,0,4.623Z" transform="translate(0 0)" fill="none" stroke="#222b45" stroke-linecap="round" stroke-linejoin="round" stroke-width="1"/>
        <circle id="Ellipse_740" cx="1.482" cy="1.482" r="1.482" transform="translate(3.141 3.215)" fill="#222b45"/>
      </g>
    </g>
  </g>
</svg>
