<svg id="Icon_Reports" data-name="Icon/Reports" xmlns="http://www.w3.org/2000/svg" width="24" height="24" viewBox="0 0 24 24">
  <rect id="Rectangle_2" data-name="Rectangle 2" width="24" height="24" fill="#fff" opacity="0"/>
  <g id="Iconly_Two-tone_Folder" data-name="Iconly/Two-tone/Folder" transform="translate(2 2)">
    <g id="Folder" transform="translate(-0.776 -0.776)">
      <path id="Path_33957" d="M19.169,13.482c0,3.578-2.109,5.687-5.687,5.687H5.7c-3.587,0-5.7-2.109-5.7-5.687v-7.8C0,2.109,1.314,0,4.893,0h2A2.282,2.282,0,0,1,8.717.913L9.63,2.127a2.291,2.291,0,0,0,1.826.913h2.83c3.587,0,4.911,1.826,4.911,5.477Z" transform="translate(0.776 0.776)" fill="none" stroke="#001489" stroke-linecap="round" stroke-linejoin="round" stroke-width="1.5"/>
      <path id="Line_194" d="M0,.456H9.593" transform="translate(5.559 12.533)" fill="none" stroke="#001489" stroke-linecap="round" stroke-linejoin="round" stroke-width="1.5" opacity="0.4"/>
    </g>
  </g>
</svg>
